<svg xmlns="http://www.w3.org/2000/svg" viewBox="0 0 188.56 140.1"><defs><style>.cls-1{fill:none;stroke:#231f20;stroke-miterlimit:10;}.cls-2{fill:#ed1556;}.cls-3{fill:#231f20;}.cls-4{fill:#00ac5f;}</style></defs><g id="Layer_2" data-name="Layer 2"><g id="Layer_1-2" data-name="Layer 1"><path class="cls-1" d="M182.9,93.8h0v-.2"/><path class="cls-1" d="M.5,56.8v.1"/><path class="cls-2" d="M29.5,44.33c-4.9-2-4.2,2.6-8,.4-4.8-2.7,1.4,8.2-5.1,12.4s-7.1-4.3-10.2-7.3C3.3,46.93.9,55.93.6,57,1,39.23,6.6,18.73,25,.13c-.2,1-1.1,26.7,1.1,39.2A9.05,9.05,0,0,0,29.5,44.33Z"/><path class="cls-2" d="M35.3,47.91c9.4,4.6,24.5,7.9,38,9.7-4.2-.5-9.9,3.5-20.1-.5C42.8,53.21,46.7,56.61,35.3,47.91Z"/><path class="cls-3" d="M182.9,83.3c-1.2-6,1.8-8.9-2.4-11.9s2-5.1-2.4-10.2-8.5-.4-8.2-4.3,8.2-4.2,8.2-4.2l-3.8-4.8c-3.7-4.8-11.6,6.5-18,9s-1.7-4.2-10.5-4.2-15,6.8-15,6.8-1.7-1.4-13.3,1.7.3,4.7-6.5,6.7-4.8,10.6-6.1,5.2-4.1,0-8.9,3.4,10.2,2,3.7,4.8S84,97.6,88.2,90.2s-2.8-10.6-.4-18.7S82.3,73.2,80,70s5.7-2.6,5-6.7c-.6-3.8-6.8-5.2-11.1-5.7l-.8-.1C68.9,57,63.2,61,53,57s-6.4-.5-17.9-9.2h0a31.28,31.28,0,0,1-5.8-3.6c-4.9-2-4.2,2.6-7.9.4-4.8-2.7,1.4,8.2-5.1,12.4S9.2,52.7,6.1,49.7C3.2,46.8.8,55.8.5,56.9,0,78.8,7.4,96.7,8.8,102.5c3.4,14,9.2,22.3,18.2,29.2s19.1,8.4,29,8.4,21.1-3.9,30.5-14.2c6.2-6.9,7.7-7.4,8-7,.3-.4,1.8.1,8,7,9.4,10.4,20.6,14.2,30.5,14.2s20-1.5,29-8.4,14.9-15.2,18.2-29.2c.4-1.8,1.4-4.7,2.6-8.6v-.2A24.32,24.32,0,0,0,182.9,83.3Zm-129.8,45c-14.9,0-27-15-27-33.5s12.1-33.5,27-33.5,27,15,27,33.5-12.1,33.5-27,33.5Zm82.9,0c-14.9,0-27-15-27-33.5s12.1-33.5,27-33.5,27,15,27,33.5-12.1,33.5-27,33.5Z"/><path class="cls-2" d="M182.9,93.6a25.52,25.52,0,0,0,0-10.3c-1.2-6,1.8-8.9-2.4-11.9s2-5.1-2.4-10.2-8.5-.4-8.2-4.3,8.2-4.2,8.2-4.2l-3.8-4.8c-3.7-4.8-11.6,6.5-18,9s-1.7-4.2-10.5-4.2-15,6.8-15,6.8-1.7-1.4-13.3,1.7.3,4.7-6.5,6.7-4.8,10.6-6.1,5.2-4.1,0-8.9,3.4,10.2,2,3.7,4.8S84,97.6,88.2,90.2s-2.8-10.6-.4-18.7S82.3,73.2,80,70s5.7-2.6,5-6.7c-.6-3.8-6.8-5.2-11.1-5.7a140.23,140.23,0,0,0,20.5,1.3c19.7.5,66.2-9.2,68.5-21.8S164.2,1,164,0C198,34.2,188.6,74.7,182.9,93.6Z"/><path class="cls-4" d="M80.1,94.7c0,18.5-12.1,33.5-27,33.5s-27-15-27-33.5,12.1-33.5,27-33.5S80.1,76.2,80.1,94.7Z"/><ellipse class="cls-4" cx="136" cy="94.7" rx="27" ry="33.5"/><circle class="cls-3" cx="53.1" cy="94.75" r="8.1"/><circle class="cls-3" cx="136" cy="94.7" r="8.1"/></g></g></svg>